<svg width="882" height="820" viewBox="0 0 882 820" fill="none" xmlns="http://www.w3.org/2000/svg">
<path d="M498.725 366.441C482.489 366.441 471.747 362.669 466.498 355.125C465.186 353.321 464.53 351.681 464.53 350.204C464.53 347.908 466.006 345.694 468.958 343.562L477.569 336.92H480.029L482.489 341.102C484.785 344.874 488.065 347.99 492.329 350.45C496.757 353.075 502.251 354.387 508.811 354.387C518.816 354.387 527.262 350.942 534.15 344.054C541.202 337.166 544.728 327.818 544.728 316.01C544.728 309.449 543.252 303.217 540.3 297.313C537.512 291.245 532.592 286.325 525.54 282.553C518.488 278.781 508.647 276.895 496.019 276.895C489.295 276.895 481.341 277.633 472.157 279.109V201.617H550.633V220.559H483.965V258.198C489.213 257.706 494.051 257.46 498.479 257.46C514.552 257.46 527.262 259.92 536.61 264.84C545.958 269.76 552.601 275.993 556.537 283.537C560.637 290.917 562.687 298.625 562.687 306.661C562.687 318.962 559.899 329.54 554.323 338.396C548.911 347.416 541.366 354.305 531.69 359.061C522.178 363.981 511.19 366.441 498.725 366.441ZM636.735 334.46C626.075 334.46 616.644 331.836 608.444 326.588C600.408 321.34 594.176 314.206 589.748 305.185C585.319 296.165 583.105 285.915 583.105 274.435C583.105 257.214 586.878 241.552 594.422 227.447C602.13 213.179 613.036 200.961 627.141 190.792C641.245 180.46 657.973 172.588 677.326 167.176V174.31C657.317 180.706 641.245 191.12 629.109 205.553C617.136 219.985 609.92 237.042 607.46 256.722C611.888 250.654 617.382 245.816 623.942 242.208C630.503 238.436 638.047 236.55 646.575 236.55C655.267 236.55 662.893 238.6 669.454 242.7C676.014 246.8 681.016 252.458 684.46 259.674C688.068 266.726 689.872 274.763 689.872 283.783C689.872 292.147 687.904 300.265 683.968 308.137C680.032 315.846 674.128 322.16 666.256 327.08C658.547 332 648.707 334.46 636.735 334.46ZM606.476 272.22C606.476 284.521 607.87 294.443 610.658 301.987C613.61 309.367 617.382 314.78 621.974 318.224C626.731 321.504 631.815 323.144 637.227 323.144C643.951 323.144 649.527 321.504 653.955 318.224C658.383 314.944 661.663 310.761 663.796 305.677C666.092 300.429 667.24 294.935 667.24 289.195C667.24 265.086 657.153 253.032 636.981 253.032C630.585 253.032 624.68 254.508 619.268 257.46C614.02 260.412 609.756 264.43 606.476 269.514C606.476 270.334 606.476 271.236 606.476 272.22ZM739.565 247.128C728.577 247.128 719.967 242.536 713.735 233.351C707.503 224.167 704.387 212.113 704.387 197.189C704.387 187.84 705.863 179.394 708.815 171.85C711.931 164.306 716.113 158.402 721.361 154.137C726.773 149.709 732.841 147.495 739.565 147.495C750.554 147.495 759.082 152.087 765.15 161.272C771.382 170.292 774.498 182.346 774.498 197.435C774.498 206.619 772.94 214.983 769.824 222.527C766.872 230.071 762.772 236.058 757.524 240.486C752.276 244.914 746.29 247.128 739.565 247.128ZM741.042 240.732C744.158 240.732 746.7 238.846 748.668 235.073C750.8 231.301 752.358 226.381 753.342 220.313C754.326 214.245 754.818 207.849 754.818 201.125C754.818 192.432 754.162 184.56 752.85 177.508C751.702 170.292 749.898 164.552 747.438 160.288C744.978 156.023 741.78 153.891 737.843 153.891C734.891 153.891 732.349 155.777 730.217 159.55C728.249 163.322 726.691 168.242 725.543 174.31C724.559 180.214 724.067 186.61 724.067 193.498C724.067 202.027 724.641 209.899 725.789 217.115C727.101 224.331 728.987 230.071 731.447 234.335C734.071 238.6 737.269 240.732 741.042 240.732ZM732.185 328.802L846.578 147.495L855.434 153.153L741.042 334.46L732.185 328.802ZM843.626 334.46C832.638 334.46 824.028 329.868 817.795 320.684C811.563 311.499 808.447 299.445 808.447 284.521C808.447 275.173 809.923 266.726 812.875 259.182C815.991 251.638 820.174 245.734 825.422 241.47C830.834 237.042 836.902 234.827 843.626 234.827C854.614 234.827 863.143 239.42 869.211 248.604C875.443 257.624 878.559 269.678 878.559 284.767C878.559 293.951 877.001 302.315 873.885 309.859C870.933 317.404 866.833 323.39 861.585 327.818C856.336 332.246 850.35 334.46 843.626 334.46ZM845.102 328.064C848.218 328.064 850.76 326.178 852.728 322.406C854.86 318.634 856.418 313.714 857.403 307.645C858.387 301.577 858.879 295.181 858.879 288.457C858.879 279.765 858.223 271.892 856.911 264.84C855.762 257.624 853.958 251.884 851.498 247.62C849.038 243.356 845.84 241.224 841.904 241.224C838.952 241.224 836.41 243.11 834.278 246.882C832.31 250.654 830.752 255.574 829.604 261.642C828.62 267.546 828.128 273.942 828.128 280.831C828.128 289.359 828.702 297.231 829.85 304.447C831.162 311.663 833.048 317.404 835.508 321.668C838.132 325.932 841.33 328.064 845.102 328.064Z" fill="#251F1D"/>
<path d="M533.647 732.789L531.577 731.738V731.212H538.346V731.738L536.276 732.789V741.267L543.504 733.939V732.789L541.434 731.738V731.212H548.203V731.738L546.133 732.789V744.421L548.203 745.472V745.998H541.434V745.472L543.504 744.421V735.944L536.276 743.271V744.421L538.346 745.472V745.998H531.577V745.472L533.647 744.421V732.789ZM558.276 746.327C556.151 746.327 554.475 745.68 553.248 744.388C552.022 743.096 551.408 741.387 551.408 739.262C551.408 737.619 551.737 736.174 552.394 734.925C553.073 733.655 553.982 732.669 555.121 731.968C556.26 731.245 557.542 730.884 558.966 730.884C559.842 730.884 560.696 731.037 561.528 731.344C562.361 731.629 562.996 732.012 563.434 732.494C563.785 732.91 563.96 733.239 563.96 733.479C563.96 733.786 563.818 734.049 563.533 734.268L562.284 735.319H562.054L560.937 733.808C560.608 733.37 560.192 733.019 559.688 732.757C559.207 732.472 558.604 732.329 557.881 732.329C556.677 732.329 555.724 732.811 555.023 733.775C554.344 734.717 554.004 736.042 554.004 737.751C554.004 738.802 554.179 739.799 554.53 740.741C554.88 741.661 555.461 742.417 556.271 743.008C557.104 743.578 558.243 743.862 559.688 743.862C560.893 743.862 562.306 743.424 563.927 742.548H564.026V742.877C563.522 743.819 562.766 744.629 561.758 745.308C560.773 745.987 559.612 746.327 558.276 746.327ZM566.022 745.998V745.472L567.796 744.322L572.1 738.671L567.73 732.757L566.186 731.738V731.212H572.987V731.738L570.753 732.724V732.921L573.809 737.061L576.47 733.118V732.921L574.597 731.738V731.212H580.052V731.738L578.31 732.888L574.466 737.948L579.263 744.454L580.61 745.472V745.998H574.236V745.472L576.24 744.487V744.289L572.757 739.591L569.735 744.092V744.289L571.772 745.472V745.998H566.022ZM590.018 746.327C588.572 746.327 587.302 745.987 586.207 745.308C585.133 744.629 584.29 743.709 583.677 742.548C583.085 741.387 582.79 740.073 582.79 738.605C582.79 737.138 583.085 735.823 583.677 734.662C584.29 733.501 585.133 732.581 586.207 731.902C587.302 731.223 588.572 730.884 590.018 730.884C591.464 730.884 592.723 731.223 593.797 731.902C594.892 732.581 595.735 733.501 596.327 734.662C596.94 735.823 597.247 737.138 597.247 738.605C597.247 740.073 596.94 741.387 596.327 742.548C595.735 743.709 594.892 744.629 593.797 745.308C592.723 745.987 591.464 746.327 590.018 746.327ZM590.478 744.914C591.354 744.914 592.077 744.64 592.647 744.092C593.216 743.545 593.632 742.844 593.895 741.989C594.158 741.113 594.29 740.204 594.29 739.262C594.29 738.101 594.125 736.984 593.797 735.911C593.49 734.838 592.986 733.961 592.285 733.282C591.606 732.603 590.719 732.264 589.624 732.264C588.726 732.264 587.992 732.538 587.422 733.085C586.853 733.633 586.426 734.334 586.141 735.188C585.878 736.042 585.747 736.951 585.747 737.915C585.747 739.076 585.911 740.193 586.24 741.267C586.568 742.34 587.083 743.216 587.784 743.895C588.485 744.574 589.383 744.914 590.478 744.914ZM601.454 744.454C601.979 743.315 602.385 742.066 602.669 740.708C602.976 739.328 603.184 737.981 603.294 736.667C603.403 735.352 603.458 734.213 603.458 733.249V732.789L601.388 731.738V731.212H614.827V731.738L612.757 732.789V744.454H615.089V750.072H614.564L612.329 745.998H602.472L600.238 750.072H599.712V744.454H601.454ZM610.128 744.454V732.757H605.101V733.249C605.101 734.235 605.046 735.396 604.937 736.732C604.827 738.047 604.641 739.383 604.378 740.741C604.115 742.099 603.743 743.337 603.261 744.454H610.128ZM626.264 745.998V745.472L627.874 744.421V739.492H625.935L622.551 744.289L621.697 745.998H617.557V745.472L619.528 744.355L623.405 739.065C622.178 738.868 621.237 738.463 620.579 737.849C619.922 737.214 619.594 736.437 619.594 735.517C619.594 734.443 619.857 733.6 620.382 732.987C620.93 732.351 621.653 731.902 622.551 731.639C623.471 731.355 624.5 731.212 625.639 731.212H632.572V731.738L630.502 732.789V744.421L632.572 745.472V745.998H626.264ZM625.344 738.277H627.874V732.592H625.672C624.533 732.592 623.679 732.866 623.109 733.414C622.54 733.939 622.255 734.608 622.255 735.418C622.255 736.185 622.507 736.853 623.011 737.422C623.537 737.992 624.314 738.277 625.344 738.277ZM646.016 732.789L643.946 731.738V731.212H650.715V731.738L648.645 732.789V741.267L655.873 733.939V732.789L653.803 731.738V731.212H660.572V731.738L658.502 732.789V744.421L660.572 745.472V745.998H653.803V745.472L655.873 744.421V735.944L648.645 743.271V744.421L650.715 745.472V745.998H643.946V745.472L646.016 744.421V732.789ZM668.903 745.144C669.911 745.144 670.721 744.87 671.334 744.322C671.948 743.775 672.254 742.964 672.254 741.891C672.254 741.015 671.97 740.292 671.4 739.722C670.831 739.153 669.922 738.868 668.673 738.868H666.8V737.619H668.706C669.714 737.619 670.436 737.357 670.874 736.831C671.334 736.283 671.564 735.604 671.564 734.794C671.564 733.983 671.334 733.348 670.874 732.888C670.414 732.406 669.692 732.165 668.706 732.165C668.005 732.165 667.457 732.308 667.063 732.592C666.669 732.855 666.296 733.271 665.946 733.841L664.862 735.582H664.402V732.001C665.037 731.694 665.738 731.431 666.504 731.212C667.271 730.993 668.18 730.884 669.232 730.884C670.108 730.884 670.929 730.993 671.696 731.212C672.484 731.431 673.12 731.804 673.602 732.329C674.105 732.833 674.357 733.545 674.357 734.465C674.357 735.276 674.105 736.031 673.602 736.732C673.098 737.411 672.167 737.871 670.809 738.112C672.254 738.288 673.35 738.704 674.094 739.361C674.839 739.996 675.212 740.807 675.212 741.792C675.212 743.26 674.62 744.388 673.437 745.177C672.276 745.943 670.787 746.327 668.969 746.327C667.808 746.327 666.877 746.228 666.176 746.031C665.497 745.834 664.807 745.56 664.106 745.209V741.529H664.566L665.617 743.337C665.968 743.928 666.384 744.377 666.866 744.684C667.348 744.99 668.027 745.144 668.903 745.144ZM693.82 746.327C692.374 746.327 691.104 745.987 690.008 745.308C688.935 744.629 688.092 743.709 687.478 742.548C686.887 741.387 686.591 740.073 686.591 738.605C686.591 737.138 686.887 735.823 687.478 734.662C688.092 733.501 688.935 732.581 690.008 731.902C691.104 731.223 692.374 730.884 693.82 730.884C695.266 730.884 696.525 731.223 697.598 731.902C698.694 732.581 699.537 733.501 700.128 734.662C700.742 735.823 701.048 737.138 701.048 738.605C701.048 740.073 700.742 741.387 700.128 742.548C699.537 743.709 698.694 744.629 697.598 745.308C696.525 745.987 695.266 746.327 693.82 746.327ZM694.28 744.914C695.156 744.914 695.879 744.64 696.448 744.092C697.018 743.545 697.434 742.844 697.697 741.989C697.96 741.113 698.091 740.204 698.091 739.262C698.091 738.101 697.927 736.984 697.598 735.911C697.292 734.838 696.788 733.961 696.087 733.282C695.408 732.603 694.521 732.264 693.426 732.264C692.527 732.264 691.794 732.538 691.224 733.085C690.655 733.633 690.227 734.334 689.943 735.188C689.68 736.042 689.548 736.951 689.548 737.915C689.548 739.076 689.713 740.193 690.041 741.267C690.37 742.34 690.885 743.216 691.586 743.895C692.286 744.574 693.185 744.914 694.28 744.914ZM706.34 732.789L704.27 731.738V731.212H720.238V731.738L718.168 732.789V744.421L720.238 745.472V745.998H713.47V745.472L715.54 744.421V732.757H708.968V744.421L711.038 745.472V745.998H704.27V745.472L706.34 744.421V732.789ZM723.394 753.555V753.029L725.464 751.978V734.629L723.492 732.921V732.691L727.566 730.884H727.764L728.026 732.888H728.256C729.089 732.187 729.888 731.683 730.655 731.377C731.422 731.048 732.254 730.884 733.152 730.884C734.269 730.884 735.255 731.169 736.109 731.738C736.964 732.308 737.632 733.118 738.114 734.169C738.617 735.199 738.869 736.437 738.869 737.882C738.869 739.679 738.53 741.212 737.851 742.482C737.194 743.731 736.295 744.684 735.156 745.341C734.017 745.998 732.769 746.327 731.411 746.327C730.184 746.327 729.078 746.217 728.092 745.998V751.978L730.425 753.029V753.555H723.394ZM731.345 733.151C730.819 733.151 730.272 733.239 729.702 733.414C729.155 733.567 728.618 733.808 728.092 734.137V743.369C728.749 743.895 729.417 744.257 730.096 744.454C730.775 744.651 731.531 744.749 732.364 744.749C733.415 744.749 734.324 744.311 735.091 743.435C735.857 742.537 736.241 741.048 736.241 738.967C736.241 737.609 736.022 736.502 735.584 735.648C735.145 734.794 734.554 734.169 733.809 733.775C733.065 733.359 732.243 733.151 731.345 733.151ZM749.491 746.327C748.045 746.327 746.775 745.987 745.679 745.308C744.606 744.629 743.763 743.709 743.149 742.548C742.558 741.387 742.262 740.073 742.262 738.605C742.262 737.138 742.558 735.823 743.149 734.662C743.763 733.501 744.606 732.581 745.679 731.902C746.775 731.223 748.045 730.884 749.491 730.884C750.937 730.884 752.196 731.223 753.269 731.902C754.365 732.581 755.208 733.501 755.799 734.662C756.413 735.823 756.719 737.138 756.719 738.605C756.719 740.073 756.413 741.387 755.799 742.548C755.208 743.709 754.365 744.629 753.269 745.308C752.196 745.987 750.937 746.327 749.491 746.327ZM749.951 744.914C750.827 744.914 751.55 744.64 752.119 744.092C752.689 743.545 753.105 742.844 753.368 741.989C753.631 741.113 753.762 740.204 753.762 739.262C753.762 738.101 753.598 736.984 753.269 735.911C752.963 734.838 752.459 733.961 751.758 733.282C751.079 732.603 750.192 732.264 749.097 732.264C748.198 732.264 747.465 732.538 746.895 733.085C746.326 733.633 745.898 734.334 745.614 735.188C745.351 736.042 745.219 736.951 745.219 737.915C745.219 739.076 745.384 740.193 745.712 741.267C746.041 742.34 746.556 743.216 747.257 743.895C747.958 744.574 748.856 744.914 749.951 744.914ZM767.034 746.327C764.909 746.327 763.234 745.68 762.007 744.388C760.78 743.096 760.167 741.387 760.167 739.262C760.167 737.619 760.495 736.174 761.153 734.925C761.832 733.655 762.741 732.669 763.88 731.968C765.019 731.245 766.3 730.884 767.724 730.884C768.6 730.884 769.454 731.037 770.287 731.344C771.119 731.629 771.754 732.012 772.193 732.494C772.543 732.91 772.718 733.239 772.718 733.479C772.718 733.786 772.576 734.049 772.291 734.268L771.043 735.319H770.813L769.695 733.808C769.367 733.37 768.951 733.019 768.447 732.757C767.965 732.472 767.363 732.329 766.64 732.329C765.435 732.329 764.482 732.811 763.781 733.775C763.102 734.717 762.763 736.042 762.763 737.751C762.763 738.802 762.938 739.799 763.288 740.741C763.639 741.661 764.219 742.417 765.03 743.008C765.862 743.578 767.001 743.862 768.447 743.862C769.652 743.862 771.064 743.424 772.685 742.548H772.784V742.877C772.28 743.819 771.524 744.629 770.517 745.308C769.531 745.987 768.37 746.327 767.034 746.327ZM779.372 746.327C778.343 746.327 777.489 746.031 776.81 745.439C776.13 744.826 775.791 743.983 775.791 742.909C775.791 741.836 776.185 740.905 776.974 740.117C777.784 739.328 779.131 738.715 781.015 738.277L784.137 737.554V735.155C784.137 734.41 783.83 733.775 783.217 733.249C782.625 732.702 781.946 732.428 781.18 732.428C780.347 732.428 779.767 732.658 779.438 733.118C779.11 733.556 778.945 734.148 778.945 734.892V735.812L778.781 735.977H777.072C776.744 735.977 776.514 735.922 776.382 735.812C776.273 735.703 776.218 735.451 776.218 735.057C776.218 734.575 776.36 734.082 776.645 733.578C776.93 733.074 777.368 732.636 777.96 732.264C778.573 731.869 779.208 731.541 779.865 731.278C780.544 731.015 781.267 730.884 782.034 730.884C782.8 730.884 783.545 730.993 784.268 731.212C785.013 731.431 785.615 731.804 786.075 732.329C786.535 732.833 786.765 733.545 786.765 734.465V743.797C786.919 743.95 787.138 744.081 787.422 744.191C787.707 744.3 788.101 744.355 788.605 744.355H789.854L789.952 744.421V744.519C789.69 745.001 789.295 745.429 788.77 745.801C788.266 746.151 787.641 746.327 786.897 746.327C786.218 746.327 785.659 746.151 785.221 745.801C784.805 745.429 784.509 744.947 784.334 744.355H784.137C783.567 744.925 782.855 745.396 782.001 745.768C781.169 746.14 780.292 746.327 779.372 746.327ZM778.354 742.252C778.354 743.61 779.175 744.289 780.818 744.289C781.344 744.289 781.859 744.235 782.362 744.125C782.888 744.016 783.48 743.819 784.137 743.534V738.671C782.384 738.999 781.103 739.35 780.292 739.722C779.482 740.073 778.956 740.456 778.715 740.872C778.474 741.289 778.354 741.749 778.354 742.252ZM545.147 771.684H545.673L545.804 771.815V772.144C545.804 773.02 545.706 773.754 545.509 774.345C545.311 774.937 544.928 775.408 544.359 775.758C543.789 776.087 542.935 776.295 541.796 776.382C540.547 776.47 539.572 776.59 538.871 776.744C538.17 776.875 537.634 777.029 537.261 777.204C536.889 777.379 536.56 777.565 536.276 777.762C535.465 778.332 534.961 779.482 534.764 781.212C534.72 781.541 534.688 781.891 534.666 782.264C534.644 782.636 534.622 783.03 534.6 783.447C535.126 782.899 535.772 782.45 536.539 782.099C537.327 781.727 538.313 781.541 539.496 781.541C540.7 781.541 541.796 781.837 542.781 782.428C543.789 783.019 544.589 783.863 545.18 784.958C545.793 786.053 546.1 787.379 546.1 788.934C546.1 790.489 545.771 791.825 545.114 792.942C544.457 794.038 543.581 794.881 542.486 795.472C541.39 796.042 540.197 796.327 538.904 796.327C537.283 796.327 535.936 795.965 534.863 795.242C533.79 794.498 532.979 793.49 532.431 792.219C531.906 790.927 531.643 789.481 531.643 787.882C531.643 786.283 531.774 784.75 532.037 783.282C532.3 781.815 532.793 780.468 533.516 779.241C534.26 777.992 535.323 776.897 536.703 775.955C538.105 774.991 539.945 774.225 542.223 773.655C543.055 773.436 543.68 773.25 544.096 773.097C544.534 772.943 544.819 772.768 544.95 772.571C545.081 772.352 545.147 772.056 545.147 771.684ZM534.6 787.389C534.6 789.93 535.038 791.825 535.914 793.074C536.79 794.3 537.93 794.914 539.331 794.914C540.361 794.914 541.248 794.487 541.993 793.632C542.76 792.756 543.143 791.376 543.143 789.492C543.143 788.353 543 787.291 542.716 786.305C542.431 785.298 541.949 784.487 541.27 783.874C540.591 783.239 539.671 782.921 538.51 782.921C536.977 782.921 535.673 783.567 534.6 784.859V787.389ZM556.776 796.327C555.33 796.327 554.06 795.987 552.965 795.308C551.891 794.629 551.048 793.709 550.435 792.548C549.843 791.387 549.547 790.073 549.547 788.605C549.547 787.138 549.843 785.823 550.435 784.662C551.048 783.501 551.891 782.581 552.965 781.902C554.06 781.223 555.33 780.884 556.776 780.884C558.222 780.884 559.481 781.223 560.555 781.902C561.65 782.581 562.493 783.501 563.085 784.662C563.698 785.823 564.005 787.138 564.005 788.605C564.005 790.073 563.698 791.387 563.085 792.548C562.493 793.709 561.65 794.629 560.555 795.308C559.481 795.987 558.222 796.327 556.776 796.327ZM557.236 794.914C558.112 794.914 558.835 794.64 559.405 794.092C559.974 793.545 560.39 792.844 560.653 791.989C560.916 791.113 561.047 790.204 561.047 789.262C561.047 788.101 560.883 786.984 560.555 785.911C560.248 784.838 559.744 783.961 559.043 783.282C558.364 782.603 557.477 782.264 556.382 782.264C555.484 782.264 554.75 782.538 554.18 783.085C553.611 783.633 553.184 784.334 552.899 785.188C552.636 786.042 552.505 786.951 552.505 787.915C552.505 789.076 552.669 790.193 552.997 791.267C553.326 792.34 553.841 793.216 554.542 793.895C555.243 794.574 556.141 794.914 557.236 794.914ZM572.187 783.578C572.187 786.163 572.056 788.353 571.793 790.149C571.552 791.946 571.147 793.359 570.577 794.388C570.227 795.023 569.811 795.505 569.329 795.834C568.847 796.162 568.277 796.327 567.62 796.327C567.16 796.327 566.864 796.261 566.733 796.129C566.602 795.998 566.536 795.746 566.536 795.374V793.731L566.667 793.599H567.16C568.124 793.599 568.847 793.205 569.329 792.417C569.811 791.628 570.128 790.489 570.282 788.999C570.457 787.51 570.544 785.703 570.544 783.578V782.789L568.277 781.738V781.212H581.716V781.738L579.646 782.789V794.421L581.716 795.472V795.998H574.947V795.472L577.017 794.421V782.757H572.187V783.578ZM591.807 796.327C589.682 796.327 588.006 795.68 586.779 794.388C585.553 793.096 584.939 791.387 584.939 789.262C584.939 787.619 585.257 786.174 585.892 784.925C586.549 783.655 587.404 782.669 588.455 781.968C589.529 781.245 590.689 780.884 591.938 780.884C593.669 780.884 595.027 781.486 596.012 782.691C597.02 783.896 597.524 785.626 597.524 787.882L597.359 788.047H587.535C587.557 789.054 587.754 790.007 588.127 790.905C588.499 791.781 589.09 792.493 589.901 793.041C590.733 793.589 591.839 793.862 593.219 793.862C594.424 793.862 595.837 793.424 597.458 792.548H597.557V792.877C597.053 793.819 596.297 794.629 595.289 795.308C594.304 795.987 593.143 796.327 591.807 796.327ZM591.412 782.329C590.361 782.329 589.496 782.702 588.817 783.447C588.159 784.169 587.754 785.199 587.601 786.535H595.027C594.786 785.046 594.359 783.972 593.745 783.315C593.154 782.658 592.376 782.329 591.412 782.329ZM607.722 796.327C605.597 796.327 603.921 795.68 602.695 794.388C601.468 793.096 600.855 791.387 600.855 789.262C600.855 787.619 601.172 786.174 601.807 784.925C602.465 783.655 603.319 782.669 604.37 781.968C605.444 781.245 606.605 780.884 607.853 780.884C609.584 780.884 610.942 781.486 611.927 782.691C612.935 783.896 613.439 785.626 613.439 787.882L613.275 788.047H603.45C603.472 789.054 603.669 790.007 604.042 790.905C604.414 791.781 605.006 792.493 605.816 793.041C606.648 793.589 607.755 793.862 609.135 793.862C610.339 793.862 611.752 793.424 613.373 792.548H613.472V792.877C612.968 793.819 612.212 794.629 611.205 795.308C610.219 795.987 609.058 796.327 607.722 796.327ZM607.327 782.329C606.276 782.329 605.411 782.702 604.732 783.447C604.075 784.169 603.669 785.199 603.516 786.535H610.942C610.701 785.046 610.274 783.972 609.66 783.315C609.069 782.658 608.291 782.329 607.327 782.329ZM628.368 795.998V795.472L631.326 794.158V777.499L625.576 780.391V779.241L633.461 774.312H634.118V794.158L636.747 795.472V795.998H628.368ZM647.984 796.327C645.706 796.327 643.943 795.33 642.694 793.337C641.467 791.343 640.854 788.616 640.854 785.155C640.854 783.009 641.15 781.103 641.741 779.438C642.355 777.751 643.198 776.426 644.271 775.462C645.345 774.477 646.582 773.984 647.984 773.984C650.262 773.984 652.015 774.98 653.241 776.974C654.49 778.967 655.114 781.694 655.114 785.155C655.114 787.302 654.807 789.219 654.194 790.905C653.581 792.57 652.737 793.895 651.664 794.881C650.613 795.845 649.386 796.327 647.984 796.327ZM648.674 794.782C649.397 794.782 650.01 794.41 650.514 793.665C651.018 792.92 651.401 791.902 651.664 790.609C651.949 789.295 652.091 787.817 652.091 786.174C652.091 782.866 651.697 780.259 650.908 778.354C650.142 776.448 648.981 775.495 647.426 775.495C646.681 775.495 646.046 775.868 645.52 776.612C644.994 777.357 644.589 778.376 644.304 779.668C644.019 780.96 643.877 782.428 643.877 784.071C643.877 787.379 644.271 789.996 645.06 791.924C645.87 793.829 647.075 794.782 648.674 794.782ZM664.413 796.327C662.135 796.327 660.371 795.33 659.123 793.337C657.896 791.343 657.283 788.616 657.283 785.155C657.283 783.009 657.578 781.103 658.17 779.438C658.783 777.751 659.626 776.426 660.7 775.462C661.773 774.477 663.011 773.984 664.413 773.984C666.691 773.984 668.443 774.98 669.67 776.974C670.918 778.967 671.543 781.694 671.543 785.155C671.543 787.302 671.236 789.219 670.623 790.905C670.009 792.57 669.166 793.895 668.093 794.881C667.041 795.845 665.815 796.327 664.413 796.327ZM665.103 794.782C665.826 794.782 666.439 794.41 666.943 793.665C667.446 792.92 667.83 791.902 668.093 790.609C668.377 789.295 668.52 787.817 668.52 786.174C668.52 782.866 668.126 780.259 667.337 778.354C666.57 776.448 665.409 775.495 663.854 775.495C663.109 775.495 662.474 775.868 661.948 776.612C661.423 777.357 661.017 778.376 660.733 779.668C660.448 780.96 660.306 782.428 660.306 784.071C660.306 787.379 660.7 789.996 661.488 791.924C662.299 793.829 663.504 794.782 665.103 794.782ZM683.437 785.188V782.789L681.531 781.738V781.212H688.037V781.738L686.066 782.789V785.155C686.066 786.448 686.328 787.346 686.854 787.849C687.38 788.353 688.201 788.605 689.318 788.605C689.954 788.605 690.512 788.572 690.994 788.507C691.476 788.441 691.947 788.331 692.407 788.178V782.789L690.436 781.738V781.212H697.106V781.738L695.036 782.789V794.421L697.106 795.472V795.998H690.074V795.472L692.407 794.421V789.394C691.794 789.591 691.202 789.733 690.633 789.821C690.063 789.909 689.505 789.952 688.957 789.952C687.029 789.952 685.627 789.591 684.751 788.868C683.875 788.145 683.437 786.919 683.437 785.188ZM707.192 796.327C705.067 796.327 703.391 795.68 702.164 794.388C700.938 793.096 700.324 791.387 700.324 789.262C700.324 787.619 700.642 786.174 701.277 784.925C701.934 783.655 702.789 782.669 703.84 781.968C704.914 781.245 706.074 780.884 707.323 780.884C709.054 780.884 710.412 781.486 711.397 782.691C712.405 783.896 712.909 785.626 712.909 787.882L712.744 788.047H702.92C702.942 789.054 703.139 790.007 703.512 790.905C703.884 791.781 704.475 792.493 705.286 793.041C706.118 793.589 707.224 793.862 708.604 793.862C709.809 793.862 711.222 793.424 712.843 792.548H712.942V792.877C712.438 793.819 711.682 794.629 710.674 795.308C709.689 795.987 708.528 796.327 707.192 796.327ZM706.797 782.329C705.746 782.329 704.881 782.702 704.202 783.447C703.544 784.169 703.139 785.199 702.986 786.535H710.412C710.171 785.046 709.744 783.972 709.13 783.315C708.539 782.658 707.761 782.329 706.797 782.329ZM721.135 783.578C721.135 786.163 721.004 788.353 720.741 790.149C720.5 791.946 720.095 793.359 719.525 794.388C719.175 795.023 718.759 795.505 718.277 795.834C717.795 796.162 717.225 796.327 716.568 796.327C716.108 796.327 715.813 796.261 715.681 796.129C715.55 795.998 715.484 795.746 715.484 795.374V793.731L715.615 793.599H716.108C717.072 793.599 717.795 793.205 718.277 792.417C718.759 791.628 719.076 790.489 719.23 788.999C719.405 787.51 719.493 785.703 719.493 783.578V782.789L717.225 781.738V781.212H730.664V781.738L728.594 782.789V794.421L730.664 795.472V795.998H723.895V795.472L725.965 794.421V782.757H721.135V783.578ZM741.116 796.327C739.67 796.327 738.4 795.987 737.305 795.308C736.231 794.629 735.388 793.709 734.775 792.548C734.183 791.387 733.888 790.073 733.888 788.605C733.888 787.138 734.183 785.823 734.775 784.662C735.388 783.501 736.231 782.581 737.305 781.902C738.4 781.223 739.67 780.884 741.116 780.884C742.562 780.884 743.821 781.223 744.895 781.902C745.99 782.581 746.833 783.501 747.425 784.662C748.038 785.823 748.345 787.138 748.345 788.605C748.345 790.073 748.038 791.387 747.425 792.548C746.833 793.709 745.99 794.629 744.895 795.308C743.821 795.987 742.562 796.327 741.116 796.327ZM741.576 794.914C742.452 794.914 743.175 794.64 743.745 794.092C744.314 793.545 744.73 792.844 744.993 791.989C745.256 791.113 745.388 790.204 745.388 789.262C745.388 788.101 745.223 786.984 744.895 785.911C744.588 784.838 744.084 783.961 743.383 783.282C742.704 782.603 741.817 782.264 740.722 782.264C739.824 782.264 739.09 782.538 738.52 783.085C737.951 783.633 737.524 784.334 737.239 785.188C736.976 786.042 736.845 786.951 736.845 787.915C736.845 789.076 737.009 790.193 737.338 791.267C737.666 792.34 738.181 793.216 738.882 793.895C739.583 794.574 740.481 794.914 741.576 794.914ZM753.636 782.789L751.566 781.738V781.212H757.677C759.671 781.212 761.281 781.453 762.507 781.935C763.756 782.417 764.38 783.293 764.38 784.564C764.38 785.352 764.117 786.064 763.592 786.699C763.088 787.335 762.157 787.773 760.799 788.014C761.982 788.145 762.902 788.397 763.559 788.769C764.238 789.142 764.72 789.58 765.005 790.084C765.289 790.566 765.432 791.059 765.432 791.562C765.432 793.03 764.775 794.136 763.46 794.881C762.146 795.626 760.131 795.998 757.415 795.998H751.566V795.472L753.636 794.421V782.789ZM758.663 782.625H756.265V787.521H758.565C759.638 787.521 760.405 787.291 760.865 786.831C761.346 786.371 761.587 785.801 761.587 785.122C761.587 784.443 761.368 783.863 760.93 783.381C760.492 782.877 759.736 782.625 758.663 782.625ZM758.532 788.769H756.265V794.585H758.4C759.824 794.585 760.854 794.355 761.489 793.895C762.146 793.413 762.475 792.734 762.475 791.858C762.475 790.894 762.157 790.139 761.522 789.591C760.908 789.043 759.912 788.769 758.532 788.769ZM774.927 796.327C772.803 796.327 771.127 795.68 769.9 794.388C768.674 793.096 768.06 791.387 768.06 789.262C768.06 787.619 768.378 786.174 769.013 784.925C769.67 783.655 770.525 782.669 771.576 781.968C772.649 781.245 773.81 780.884 775.059 780.884C776.789 780.884 778.147 781.486 779.133 782.691C780.141 783.896 780.645 785.626 780.645 787.882L780.48 788.047H770.656C770.678 789.054 770.875 790.007 771.247 790.905C771.62 791.781 772.211 792.493 773.022 793.041C773.854 793.589 774.96 793.862 776.34 793.862C777.545 793.862 778.958 793.424 780.579 792.548H780.677V792.877C780.174 793.819 779.418 794.629 778.41 795.308C777.425 795.987 776.264 796.327 774.927 796.327ZM774.533 782.329C773.482 782.329 772.616 782.702 771.937 783.447C771.28 784.169 770.875 785.199 770.722 786.535H778.147C777.906 785.046 777.479 783.972 776.866 783.315C776.275 782.658 775.497 782.329 774.533 782.329ZM795.41 795.998L794.161 794.289L788.608 788.441V794.421L790.678 795.472V795.998H783.91V795.472L785.98 794.421V782.789L783.91 781.738V781.212H790.678V781.738L788.608 782.789V787.948L794.555 783.118V782.921L793.603 781.738V781.212H799.385V781.738L797.085 782.888L791.138 787.521L797.644 794.355L799.747 795.472V795.998H795.41Z" fill="#251F1D"/>
<path d="M679.841 433.968C690.843 434.949 699.038 444.68 697.304 455.589C689.868 502.373 671.103 546.743 642.517 584.769C609.916 628.137 565.841 661.527 515.267 681.169C464.693 700.812 409.635 705.925 356.309 695.931C302.983 685.938 253.513 661.235 213.483 624.613C173.454 587.99 144.46 540.907 129.774 488.678C115.089 436.448 115.297 381.154 130.375 329.037C145.454 276.92 174.801 230.056 215.105 193.736C250.446 161.889 292.976 139.261 338.916 127.704C349.628 125.009 360.047 132.308 362 143.18L407.212 394.881C408.806 403.755 416.14 410.466 425.121 411.266L679.841 433.968Z" fill="#DED6C7"/>
</svg>
