<svg width="253" height="76" viewBox="0 0 253 76" fill="none" xmlns="http://www.w3.org/2000/svg">
<path fill-rule="evenodd" clip-rule="evenodd" d="M7.64224 75.2746C14.9726 75.1541 15.3418 75.1094 16.6709 74.1769C19.3944 72.2658 19.4615 71.8442 19.4615 56.6435C19.4615 41.0781 19.3719 40.5996 16.1735 39.1181C14.8256 38.4936 13.535 38.387 7.29808 38.3859L0 38.3843V56.8921V75.3998L7.64224 75.2746ZM3.58502 37.6062H7.17004V29.4363V21.2662H9.7308H12.2915V29.4363V37.6062H16.1326H19.9737V18.932V0.257646H16.1326H12.2915V7.64954V15.0414H9.7308H7.17004V7.64954V0.257646H3.58502H0V18.932V37.6062H3.58502ZM9.16379 43.442C10.5092 43.442 11.2585 43.6419 11.4685 44.0574C11.6396 44.3959 11.7794 50.1382 11.7794 56.8182C11.7794 65.7457 11.6165 69.0871 11.1648 69.4302C10.8268 69.6874 9.78969 69.8972 8.86012 69.8972H7.17004V56.6696V43.442H9.16379ZM30.7287 75.3436H39.4352V72.6204V69.8972H34.5698H29.7044V64.4506V59.0039H33.5456H37.3867V56.2805V53.5572H33.5456H29.7044V48.4996V43.442H34.3138H38.9231V40.9131V38.3843H30.4727H22.0223V56.8641V75.3436H30.7287ZM22.726 34.0573C24.7618 38.3322 34.5821 39.4254 39.2304 35.8944C41.3071 34.3168 41.9893 32.4268 41.9929 28.2411C41.997 23.7051 41.1714 22.1365 36.1016 17.0497C31.0114 11.9423 30.3564 11.0533 30.1746 9.00343C29.9042 5.95447 30.1203 5.34834 31.5768 5.07094C33.6516 4.67528 34.3138 5.69381 34.3138 9.28008V12.3181H37.9541H41.5944L41.4105 7.92382C41.2119 3.16578 40.6981 2.07139 38.0422 0.749402C35.924 -0.304915 28.2464 -0.229055 26.3166 0.865335C23.1439 2.66468 22.7905 3.41555 22.7905 8.35998C22.7905 12.6002 22.8853 13.0313 24.2153 14.8536C24.9994 15.9273 27.0183 18.1157 28.7027 19.7166C30.3872 21.3179 32.3384 23.4939 33.0395 24.5522C35.2505 27.8909 34.5007 32.5486 31.7531 32.5486C29.8678 32.5486 29.1923 31.0885 29.1923 27.0152V23.2115H25.6073H22.0223L22.0612 27.9773C22.0832 30.6765 22.3715 33.3131 22.726 34.0573ZM42.0277 72.7138C43.454 74.765 46.1761 75.7327 50.5201 75.7327C55.0562 75.7327 57.7547 74.7623 59.4427 72.5236C60.5731 71.0239 60.6893 70.4352 60.6893 66.2012C60.6893 60.6651 60.6488 60.59 54.1051 54.054C48.9596 48.9143 47.8457 46.6636 49.1532 44.0508C49.7678 42.823 51.9362 42.6744 52.7331 43.8053C53.0246 44.2193 53.2631 45.8824 53.2631 47.5012V50.4448H56.9035H60.5438L60.339 46.068C60.0127 39.0819 58.4205 37.8004 50.3839 38.0556C45.6168 38.2073 43.9334 38.8528 42.3524 41.1353C41.5862 42.2422 41.4587 43.1984 41.6057 46.7488C41.8157 51.8318 41.8945 51.9706 48.1642 58.2923C52.1944 62.3563 52.7044 63.0593 53.0214 64.9863C53.216 66.1705 53.17 67.804 52.919 68.6154C52.5343 69.8586 52.2261 70.1124 50.9673 70.2227C48.6405 70.4257 48.1417 69.5311 48.1417 65.1543V61.3382H44.5567H40.9717L40.9942 66.2985C41.0132 70.4643 41.1785 71.4916 42.0277 72.7138ZM44.3861 37.3468C44.5736 37.4895 48.4915 37.6062 53.0926 37.6062H61.4575V34.6884V31.7705H56.5921H51.7267V26.3239V20.8772H55.3117H58.8968V18.1538V15.4305H55.3117H51.7267V10.5674V5.70432H56.336H60.9454V2.98098V0.257646H52.495H44.0446V18.6724C44.0446 28.8009 44.1982 37.2044 44.3861 37.3468ZM66.835 75.3436H70.6761V56.8641V38.3843H66.835H62.9939V56.8641V75.3436H66.835ZM71.9063 37.6062H75.1851L75.518 35.1747C76.175 30.3809 76.0429 30.5493 79.0446 30.6816L81.6873 30.7979L82.1334 34.2021L82.5795 37.6062H86.1025C88.6893 37.6062 89.6253 37.4689 89.6253 37.0896C89.6253 36.8056 88.2442 28.5336 86.5557 18.7071C84.8672 8.88087 83.4844 0.703106 83.4828 0.534258C83.4813 0.365411 81.4635 0.277876 78.9985 0.339734L74.5172 0.45217L73.9083 4.34265C73.5734 6.48241 72.2484 14.7804 70.9634 22.7827C69.679 30.7851 68.6275 37.3938 68.6275 37.4693C68.6275 37.5448 70.103 37.6062 71.9063 37.6062ZM74.3221 72.9229C76.656 76.5042 82.0058 76.9136 85.7153 73.7945C87.6758 72.146 87.7833 72.1582 88.3257 74.0794C88.6545 75.2448 88.8399 75.3436 90.69 75.3436H92.6982V64.0615V52.7791H87.5769H82.4554V55.697V58.6148H84.2479H86.0405V63.2581C86.0405 65.8118 85.8233 68.3353 85.5576 68.8658C84.9768 70.0264 83.3901 70.4853 81.9627 69.9053C80.9462 69.4918 80.919 69.1588 80.919 57.0769C80.919 50.2546 81.0589 44.3959 81.2299 44.0574C81.6806 43.165 84.3412 43.2618 84.9983 44.1944C85.2897 44.6083 85.5283 46.0964 85.5283 47.5012V50.0557H89.1816H92.8354L92.5931 46.2283C92.1672 39.5095 90.1536 37.8638 82.6209 38.0731C77.7002 38.21 76.1786 38.8446 74.3892 41.5045C73.2573 43.1875 73.2369 43.4653 73.2374 57.2383C73.2379 70.735 73.2784 71.321 74.3221 72.9229ZM77.902 18.0511C78.2575 15.1057 78.702 12.8297 78.8899 12.9935C79.0774 13.1569 79.5111 15.5667 79.8538 18.3483C80.1959 21.1301 80.5913 23.7122 80.7321 24.0868C80.9462 24.6568 80.6435 24.7676 78.8704 24.7676C77.0995 24.7676 76.7943 24.6564 77.0042 24.0868C77.1425 23.7122 77.5466 20.9962 77.902 18.0511ZM94.7474 37.6062H98.3317V29.2417V20.8772H100.022C102.838 20.8772 102.941 21.1542 102.941 28.7107C102.941 32.5054 103.166 36.0594 103.44 36.6083C103.909 37.544 104.157 37.6062 107.41 37.6066L110.88 37.607L110.752 29.7284C110.602 20.473 110.443 19.5377 108.808 18.2962C107.59 17.3703 107.587 17.3481 108.56 16.6093C110.185 15.3745 110.753 12.8826 110.526 7.9919C110.196 0.870397 109.21 0.257646 98.092 0.257646H91.1622V18.932V37.6062H94.7474ZM98.844 75.3436H102.429L102.47 65.3259L102.512 55.3079L105.894 65.3259L109.276 75.3436H112.255H115.233V56.8641V38.3843H111.904H108.575L108.529 48.0133C108.475 58.9634 108.839 59.1486 104.707 46.068L102.281 38.3843H98.77H95.2588V56.8641V75.3436H98.844ZM100.022 5.31526C102.663 5.31526 102.941 5.79808 102.941 10.3729C102.941 14.9477 102.663 15.4305 100.022 15.4305H98.3317V10.3729V5.31526H100.022ZM114.715 5.70432H117.782L117.916 21.558L118.049 37.4117L121.763 37.5261L125.475 37.6405V21.6724V5.70432H128.548H131.621V2.98098V0.257646H121.635H111.648V2.98098V5.70432H114.715ZM125.349 72.5926C126.745 74.6729 128.592 75.4789 132.385 75.6623C136.924 75.8816 139.016 75.5121 141.102 74.1214C143.315 72.6447 144.425 69.9994 144.425 66.2012C144.425 61.8276 143.504 60.1831 137.855 54.4746C132.836 49.4018 132.133 48.2867 132.133 45.386C132.133 43.7294 133.067 42.9343 134.794 43.1202C135.905 43.24 135.99 43.4564 136.231 46.7488L136.487 50.2503H140.072H143.657L143.61 46.152C143.556 41.4629 143 40.2276 140.328 38.8535C138.72 38.0268 138.078 37.9451 134.091 38.0611C129.119 38.205 127.57 38.7772 125.732 41.1485C124.896 42.2258 124.711 43.1505 124.728 46.1653C124.753 50.6965 125.84 52.7472 130.76 57.5437C135.915 62.5695 136.227 63.0667 136.228 66.2666C136.231 69.7902 135.974 70.2863 134.145 70.2863C132.068 70.2863 131.621 69.3605 131.621 65.0598V61.3382H128.037H124.452L124.453 66.2985C124.453 70.2518 124.634 71.5295 125.349 72.5926ZM141.993 37.5276L145.193 37.4117L145.705 34.1048L146.218 30.7979L148.86 30.6816C151.862 30.5493 151.73 30.3809 152.387 35.1747L152.72 37.6062H156.32H159.92L159.631 36.1473C159.471 35.3447 158.013 26.9417 156.391 17.473L153.44 0.257646H149.042H144.644L141.7 18.6401C140.08 28.7507 138.763 37.1623 138.773 37.3332C138.784 37.5036 140.232 37.5911 141.993 37.5276ZM147.626 72.6068C149.226 74.9761 151.314 75.7327 156.249 75.7327C160.735 75.7327 162.819 74.9585 164.627 72.6197C165.538 71.4415 165.703 70.4622 165.853 65.3259L166.027 59.3929H162.396H158.765V64.0872C158.765 69.4072 158.398 70.2863 156.174 70.2863C155.002 70.2863 154.526 70.0521 154.143 69.2881C153.86 68.7223 153.644 63.3468 153.644 56.8641C153.644 50.3814 153.86 45.0059 154.143 44.4399C154.526 43.6758 155.002 43.442 156.174 43.442C158.326 43.442 158.765 44.3278 158.765 48.6684V52.39H162.4H166.036L165.858 47.2351C165.708 42.9171 165.51 41.8593 164.637 40.7186C163.128 38.7454 160.807 37.9964 156.196 37.9961C151.317 37.9953 149.22 38.7601 147.626 41.1217C146.494 42.7988 146.473 43.0739 146.473 56.8641C146.473 70.6544 146.494 70.9292 147.626 72.6068ZM148.061 17.4715C148.407 14.6357 148.775 12.3796 148.878 12.4586C149.139 12.6574 150.561 21.9548 150.566 23.5033C150.57 24.6949 150.466 24.7676 148.738 24.7676C147.015 24.7676 146.921 24.7031 147.168 23.6978C147.314 23.1095 147.715 20.3076 148.061 17.4715ZM161.515 37.446C161.9 37.5584 163.457 37.5969 164.972 37.5312L167.728 37.4117L167.984 27.549L168.24 17.6862L171.269 26.7708C172.935 31.7674 174.485 36.2492 174.713 36.7308C175.076 37.495 175.488 37.6062 177.958 37.6062H180.787V18.932V0.257646H177.459H174.129L174.074 9.88657L174.017 19.5155L170.901 9.88657L167.784 0.257646H164.299H160.814V18.7495C160.814 34.043 160.935 37.2771 161.515 37.446ZM172.081 75.3436H175.666V67.1739V59.0039H178.227H180.787V67.1739V75.3436H184.628H188.469V56.8641V38.3843H184.628H180.787V45.7762V53.1681H178.227H175.666V45.7762V38.3843H172.081H168.496V56.8641V75.3436H172.081ZM190.902 37.5374C199.171 37.3693 200.593 36.9733 202.245 34.3818C203.279 32.7606 203.322 32.1245 203.321 18.7117C203.321 3.32373 203.266 3.03311 200.085 1.25788C198.813 0.547875 197.765 0.437384 191.251 0.326116L183.86 0.200069V18.9405V37.6809L190.902 37.5374ZM192.183 72.2238C194.071 75.0309 195.424 75.5385 201.017 75.5385C206.391 75.5385 207.801 75.0593 209.724 72.5798C210.689 71.3352 210.756 70.4494 210.894 57.2532C211.038 43.3264 211.032 43.2377 209.869 41.5197C207.957 38.6952 206.614 38.1898 201.017 38.1898C195.424 38.1898 194.071 38.6975 192.183 41.5045C191.052 43.1848 191.031 43.4793 191.031 56.8641C191.031 70.2491 191.052 70.5435 192.183 72.2238ZM192.805 5.31526C194.035 5.31526 194.742 5.54597 195.11 6.06768C195.443 6.53999 195.64 11.3105 195.64 18.8786C195.64 32.1405 195.635 32.1595 192.53 32.1595H191.031V18.7374V5.31526H192.805ZM198.7 44.4399C199.078 43.6851 199.562 43.442 200.686 43.442C203.539 43.442 203.578 43.6221 203.578 56.8641C203.578 70.0481 203.495 70.4474 200.817 70.2091C198.394 69.9926 198.216 69.0817 198.208 56.7922C198.204 50.3409 198.416 45.0071 198.7 44.4399ZM214.284 71.1579C215.97 74.6966 218.128 75.7327 223.815 75.7327C228.591 75.7327 231.004 74.7826 232.643 72.257C233.771 70.5171 233.795 70.1997 233.795 56.8641C233.795 43.3486 233.786 43.2334 232.588 41.3866C230.839 38.6882 228.53 37.8782 223.092 38.0552C218.283 38.2112 216.354 38.9858 214.78 41.3917C213.906 42.7285 213.811 44.0477 213.705 56.2805C213.615 66.77 213.742 70.0203 214.284 71.1579ZM221.861 43.9088C222.2 43.652 223.127 43.442 223.923 43.442C225.005 43.442 225.495 43.6936 225.869 44.4399C226.152 45.0059 226.369 50.3814 226.369 56.8641C226.369 63.3468 226.152 68.7223 225.869 69.2881C225.495 70.0345 225.005 70.2863 223.923 70.2863C223.127 70.2863 222.2 70.0758 221.861 69.8193C220.982 69.1514 220.982 44.5768 221.861 43.9088ZM244.806 75.3436H253V72.4261V69.508H248.391H243.781V53.9463V38.3843H240.196H236.611V56.8641V75.3436H244.806Z" fill="#ECEBE1"/>
</svg>
