<svg width="1648" height="483" viewBox="0 0 1648 483" fill="none" xmlns="http://www.w3.org/2000/svg">
<path fill-rule="evenodd" clip-rule="evenodd" d="M278.607 80.7598C277.365 80.294 275.874 80.0611 274.135 80.0611C271.962 80.0611 270.114 80.5424 268.592 81.5051C267.102 82.4677 266.357 83.9893 266.357 86.0698C266.357 87.8088 266.931 89.2062 268.08 90.2619C269.26 91.2867 270.735 91.7991 272.505 91.7991C274.803 91.7991 276.915 90.9606 278.84 89.2838C279.275 90.2154 279.849 90.8519 280.563 91.1935C281.277 91.5662 282.085 91.7525 282.985 91.7525C284.724 91.7525 286.199 90.8675 287.41 89.0975L286.665 88.3522C286.417 88.6938 286.137 89.0198 285.827 89.3304C285.423 89.6719 284.988 89.8427 284.523 89.8427C283.529 89.8427 283.032 89.1751 283.032 87.8398V75.6361C283.032 72.034 280.61 70.2329 275.766 70.2329C274.089 70.2329 272.412 70.6676 270.735 71.5371C269.089 72.3755 268.266 73.54 268.266 75.0306C268.266 75.7448 268.484 76.3192 268.918 76.754C269.322 77.2198 269.866 77.4527 270.549 77.4527C271.232 77.4527 271.791 77.2353 272.226 76.8006C272.66 76.3658 272.878 75.8069 272.878 75.1237C272.878 74.4405 272.707 73.8816 272.365 73.4469C271.962 73.0432 271.558 72.7792 271.154 72.655C272.179 71.8476 273.452 71.444 274.974 71.444C276.247 71.444 277.163 71.7545 277.722 72.3755C278.312 72.9655 278.607 73.8971 278.607 75.1703V80.7598ZM271.993 88.5851C271.341 87.8398 271.015 86.8151 271.015 85.5109C271.015 84.1756 271.341 83.1353 271.993 82.3901C272.676 81.6137 273.67 81.2256 274.974 81.2256C275.657 81.2256 276.278 81.2722 276.837 81.3653C277.427 81.5206 278.017 81.7069 278.607 81.9243V88.2125C278.079 88.7093 277.52 89.0664 276.93 89.2838C276.34 89.5633 275.672 89.703 274.927 89.703C273.654 89.703 272.676 89.3304 271.993 88.5851ZM296.968 75.1703V70L292.543 70.6521H289.049V71.9097H292.543V90.1222H289.049V91.3798H300.927V90.1222H296.968V80.4803C296.968 78.3377 297.527 76.3192 298.645 74.425C299.794 72.4997 301.346 71.5371 303.303 71.5371C303.893 71.5371 304.39 71.6613 304.793 71.9097C303.551 72.4998 302.93 73.3848 302.93 74.5648C302.93 75.2169 303.147 75.7603 303.582 76.195C304.017 76.5987 304.56 76.8006 305.212 76.8006C305.927 76.8006 306.517 76.5521 306.982 76.0553C307.479 75.5274 307.728 74.9063 307.728 74.1921C307.728 72.9811 307.324 72.0184 306.517 71.3042C305.709 70.59 304.7 70.2329 303.489 70.2329C300.384 70.2329 298.21 71.8787 296.968 75.1703ZM328.235 73.2605C326.341 71.2421 323.794 70.2329 320.596 70.2329C317.491 70.2329 314.96 71.2421 313.004 73.2605C311.078 75.2479 310.116 77.8253 310.116 80.9927C310.116 84.2222 311.047 86.8306 312.91 88.818C314.774 90.7743 317.335 91.7525 320.596 91.7525C323.67 91.7525 326.185 90.7433 328.142 88.7248C330.098 86.6754 331.076 84.0824 331.076 80.9461C331.076 77.8098 330.129 75.2479 328.235 73.2605ZM323.344 89.5633C322.568 90.1843 321.636 90.4948 320.549 90.4948C318.748 90.4948 317.351 89.5477 316.357 87.6535C315.364 86.0077 314.867 83.7874 314.867 80.9927C314.867 79.999 314.96 78.9898 315.146 77.965C315.332 76.9403 315.627 75.9311 316.031 74.9374C316.435 73.9127 317.025 73.0898 317.801 72.4687C318.609 71.8166 319.54 71.4905 320.596 71.4905C321.714 71.4905 322.661 71.8011 323.437 72.4221C324.245 73.0432 324.835 73.8661 325.207 74.8908C325.611 75.9156 325.89 76.9248 326.046 77.9185C326.232 78.9122 326.325 79.9369 326.325 80.9927C326.325 82.0174 326.232 83.0422 326.046 84.0669C325.859 85.0606 325.564 86.0698 325.161 87.0946C324.757 88.0883 324.151 88.9111 323.344 89.5633ZM369.051 90.1222V77.965C369.051 72.8103 366.908 70.2329 362.623 70.2329C359.394 70.2329 357.065 71.8321 355.636 75.0306C354.953 71.8321 352.904 70.2329 349.488 70.2329C346.103 70.2329 343.774 71.8476 342.501 75.0771V70L338.122 70.6521H334.582V71.9097H338.076V90.1222H334.582V91.3798H345.761V90.1222H342.501V79.409C342.501 77.67 342.936 76.0863 343.805 74.6579C344.706 73.1984 345.963 72.4687 347.578 72.4687C348.603 72.4687 349.395 72.7482 349.954 73.3071C350.544 73.8661 350.916 74.5027 351.071 75.2169C351.227 75.9311 351.304 76.8161 351.304 77.8719V90.1222H348.044V91.3798H358.99V90.1222H355.729V79.409C355.729 76.459 356.676 74.3319 358.571 73.0276C359.192 72.655 359.921 72.4687 360.76 72.4687C361.816 72.4687 362.639 72.7792 363.229 73.4003C363.819 74.0213 364.176 74.7045 364.3 75.4498C364.455 76.195 364.533 77.1111 364.533 78.1979V90.1222H361.272V91.3798H372.544V90.1222H369.051ZM387.368 80.7598C386.125 80.294 384.635 80.0611 382.896 80.0611C380.722 80.0611 378.875 80.5424 377.353 81.5051C375.862 82.4677 375.117 83.9893 375.117 86.0698C375.117 87.8088 375.692 89.2062 376.841 90.2619C378.021 91.2867 379.496 91.7991 381.266 91.7991C383.564 91.7991 385.675 90.9606 387.6 89.2838C388.035 90.2154 388.61 90.8519 389.324 91.1935C390.038 91.5662 390.845 91.7525 391.746 91.7525C393.485 91.7525 394.96 90.8675 396.171 89.0975L395.426 88.3522C395.177 88.6938 394.898 89.0198 394.587 89.3304C394.184 89.6719 393.749 89.8427 393.283 89.8427C392.289 89.8427 391.793 89.1751 391.793 87.8398V75.6361C391.793 72.034 389.37 70.2329 384.526 70.2329C382.849 70.2329 381.173 70.6676 379.496 71.5371C377.85 72.3755 377.027 73.54 377.027 75.0306C377.027 75.7448 377.244 76.3192 377.679 76.754C378.083 77.2198 378.626 77.4527 379.309 77.4527C379.993 77.4527 380.551 77.2353 380.986 76.8006C381.421 76.3658 381.638 75.8069 381.638 75.1237C381.638 74.4405 381.468 73.8816 381.126 73.4469C380.722 73.0432 380.319 72.7792 379.915 72.655C380.94 71.8476 382.213 71.444 383.734 71.444C385.008 71.444 385.924 71.7545 386.483 72.3755C387.073 72.9655 387.368 73.8971 387.368 75.1703V80.7598ZM380.753 88.5851C380.101 87.8398 379.775 86.8151 379.775 85.5109C379.775 84.1756 380.101 83.1353 380.753 82.3901C381.436 81.6137 382.43 81.2256 383.734 81.2256C384.418 81.2256 385.039 81.2722 385.598 81.3653C386.188 81.5206 386.778 81.7069 387.368 81.9243V88.2125C386.84 88.7093 386.281 89.0664 385.691 89.2838C385.101 89.5633 384.433 89.703 383.688 89.703C382.415 89.703 381.436 89.3304 380.753 88.5851ZM1247.27 80.7598C1246.03 80.294 1244.54 80.0611 1242.8 80.0611C1240.63 80.0611 1238.78 80.5424 1237.26 81.5051C1235.77 82.4677 1235.02 83.9893 1235.02 86.0698C1235.02 87.8088 1235.6 89.2062 1236.75 90.2619C1237.93 91.2867 1239.4 91.7991 1241.17 91.7991C1243.47 91.7991 1245.58 90.9606 1247.51 89.2838C1247.94 90.2154 1248.52 90.8519 1249.23 91.1935C1249.94 91.5662 1250.75 91.7525 1251.65 91.7525C1253.39 91.7525 1254.87 90.8675 1256.08 89.0975L1255.33 88.3522C1255.08 88.6938 1254.8 89.0198 1254.49 89.3304C1254.09 89.6719 1253.66 89.8427 1253.19 89.8427C1252.2 89.8427 1251.7 89.1751 1251.7 87.8398V75.6361C1251.7 72.034 1249.28 70.2329 1244.43 70.2329C1242.76 70.2329 1241.08 70.6676 1239.4 71.5371C1237.76 72.3755 1236.93 73.54 1236.93 75.0306C1236.93 75.7448 1237.15 76.3192 1237.59 76.754C1237.99 77.2198 1238.53 77.4527 1239.22 77.4527C1239.9 77.4527 1240.46 77.2353 1240.89 76.8006C1241.33 76.3658 1241.54 75.8069 1241.54 75.1237C1241.54 74.4405 1241.37 73.8816 1241.03 73.4469C1240.63 73.0432 1240.22 72.7792 1239.82 72.655C1240.85 71.8476 1242.12 71.444 1243.64 71.444C1244.91 71.444 1245.83 71.7545 1246.39 72.3755C1246.98 72.9655 1247.27 73.8971 1247.27 75.1703V80.7598ZM1240.66 88.5851C1240.01 87.8398 1239.68 86.8151 1239.68 85.5109C1239.68 84.1756 1240.01 83.1353 1240.66 82.3901C1241.34 81.6137 1242.34 81.2256 1243.64 81.2256C1244.32 81.2256 1244.94 81.2722 1245.5 81.3653C1246.09 81.5206 1246.68 81.7069 1247.27 81.9243V88.2125C1246.75 88.7093 1246.19 89.0664 1245.6 89.2838C1245.01 89.5633 1244.34 89.703 1243.59 89.703C1242.32 89.703 1241.34 89.3304 1240.66 88.5851ZM1265.63 75.1703V70L1261.21 70.6521H1257.72V71.9097H1261.21V90.1222H1257.72V91.3798H1269.59V90.1222H1265.63V80.4803C1265.63 78.3377 1266.19 76.3192 1267.31 74.425C1268.46 72.4997 1270.01 71.5371 1271.97 71.5371C1272.56 71.5371 1273.06 71.6613 1273.46 71.9097C1272.22 72.4998 1271.6 73.3848 1271.6 74.5648C1271.6 75.2169 1271.81 75.7603 1272.25 76.195C1272.68 76.5987 1273.23 76.8006 1273.88 76.8006C1274.59 76.8006 1275.18 76.5521 1275.65 76.0553C1276.15 75.5274 1276.39 74.9063 1276.39 74.1921C1276.39 72.9811 1275.99 72.0184 1275.18 71.3042C1274.38 70.59 1273.37 70.2329 1272.16 70.2329C1269.05 70.2329 1266.88 71.8787 1265.63 75.1703ZM1296.9 73.2605C1295.01 71.2421 1292.46 70.2329 1289.26 70.2329C1286.16 70.2329 1283.63 71.2421 1281.67 73.2605C1279.75 75.2479 1278.78 77.8253 1278.78 80.9927C1278.78 84.2222 1279.71 86.8306 1281.58 88.818C1283.44 90.7743 1286 91.7525 1289.26 91.7525C1292.34 91.7525 1294.85 90.7433 1296.81 88.7248C1298.76 86.6754 1299.74 84.0824 1299.74 80.9461C1299.74 77.8098 1298.8 75.2479 1296.9 73.2605ZM1292.01 89.5633C1291.23 90.1843 1290.3 90.4948 1289.22 90.4948C1287.42 90.4948 1286.02 89.5477 1285.02 87.6535C1284.03 86.0077 1283.53 83.7874 1283.53 80.9927C1283.53 79.999 1283.63 78.9898 1283.81 77.965C1284 76.9403 1284.29 75.9311 1284.7 74.9374C1285.1 73.9127 1285.69 73.0898 1286.47 72.4687C1287.28 71.8166 1288.21 71.4905 1289.26 71.4905C1290.38 71.4905 1291.33 71.8011 1292.1 72.4221C1292.91 73.0432 1293.5 73.8661 1293.87 74.8908C1294.28 75.9156 1294.56 76.9248 1294.71 77.9185C1294.9 78.9122 1294.99 79.9369 1294.99 80.9927C1294.99 82.0174 1294.9 83.0422 1294.71 84.0669C1294.53 85.0606 1294.23 86.0698 1293.83 87.0946C1293.42 88.0883 1292.82 88.9111 1292.01 89.5633ZM1337.72 90.1222V77.965C1337.72 72.8103 1335.58 70.2329 1331.29 70.2329C1328.06 70.2329 1325.73 71.8321 1324.3 75.0306C1323.62 71.8321 1321.57 70.2329 1318.15 70.2329C1314.77 70.2329 1312.44 71.8476 1311.17 75.0771V70L1306.79 70.6521H1303.25V71.9097H1306.74V90.1222H1303.25V91.3798H1314.43V90.1222H1311.17V79.409C1311.17 77.67 1311.6 76.0863 1312.47 74.6579C1313.37 73.1984 1314.63 72.4687 1316.24 72.4687C1317.27 72.4687 1318.06 72.7482 1318.62 73.3071C1319.21 73.8661 1319.58 74.5027 1319.74 75.2169C1319.89 75.9311 1319.97 76.8161 1319.97 77.8719V90.1222H1316.71V91.3798H1327.66V90.1222H1324.4V79.409C1324.4 76.459 1325.34 74.3319 1327.24 73.0276C1327.86 72.655 1328.59 72.4687 1329.43 72.4687C1330.48 72.4687 1331.31 72.7792 1331.9 73.4003C1332.49 74.0213 1332.84 74.7045 1332.97 75.4498C1333.12 76.195 1333.2 77.1111 1333.2 78.1979V90.1222H1329.94V91.3798H1341.21V90.1222H1337.72ZM1356.03 80.7598C1354.79 80.294 1353.3 80.0611 1351.56 80.0611C1349.39 80.0611 1347.54 80.5424 1346.02 81.5051C1344.53 82.4677 1343.78 83.9893 1343.78 86.0698C1343.78 87.8088 1344.36 89.2062 1345.51 90.2619C1346.69 91.2867 1348.16 91.7991 1349.93 91.7991C1352.23 91.7991 1354.34 90.9606 1356.27 89.2838C1356.7 90.2154 1357.28 90.8519 1357.99 91.1935C1358.7 91.5662 1359.51 91.7525 1360.41 91.7525C1362.15 91.7525 1363.63 90.8675 1364.84 89.0975L1364.09 88.3522C1363.84 88.6938 1363.56 89.0198 1363.25 89.3304C1362.85 89.6719 1362.42 89.8427 1361.95 89.8427C1360.96 89.8427 1360.46 89.1751 1360.46 87.8398V75.6361C1360.46 72.034 1358.04 70.2329 1353.19 70.2329C1351.52 70.2329 1349.84 70.6676 1348.16 71.5371C1346.52 72.3755 1345.69 73.54 1345.69 75.0306C1345.69 75.7448 1345.91 76.3192 1346.35 76.754C1346.75 77.2198 1347.29 77.4527 1347.98 77.4527C1348.66 77.4527 1349.22 77.2353 1349.65 76.8006C1350.09 76.3658 1350.31 75.8069 1350.31 75.1237C1350.31 74.4405 1350.13 73.8816 1349.79 73.4469C1349.39 73.0432 1348.99 72.7792 1348.58 72.655C1349.61 71.8476 1350.88 71.444 1352.4 71.444C1353.67 71.444 1354.59 71.7545 1355.15 72.3755C1355.74 72.9655 1356.03 73.8971 1356.03 75.1703V80.7598ZM1349.42 88.5851C1348.77 87.8398 1348.44 86.8151 1348.44 85.5109C1348.44 84.1756 1348.77 83.1353 1349.42 82.3901C1350.1 81.6137 1351.1 81.2256 1352.4 81.2256C1353.08 81.2256 1353.71 81.2722 1354.26 81.3653C1354.85 81.5206 1355.44 81.7069 1356.03 81.9243V88.2125C1355.51 88.7093 1354.95 89.0664 1354.36 89.2838C1353.77 89.5633 1353.1 89.703 1352.35 89.703C1351.08 89.703 1350.1 89.3304 1349.42 88.5851ZM592.748 412.83V411.573H596.242V381.157H592.748V379.899H596.288L600.667 379.247V384.184C601.909 381.048 604.3 379.48 607.84 379.48C610.883 379.48 613.135 380.442 614.594 382.368C616.085 384.262 616.83 386.746 616.83 389.82C616.83 392.77 615.976 395.379 614.268 397.646C612.56 399.881 610.293 400.999 607.467 400.999C604.269 400.999 602.002 399.633 600.667 396.9V411.573H604.393V412.83H592.748ZM600.667 388.749V392.848C600.667 394.401 601.226 395.876 602.344 397.273C603.493 398.639 604.828 399.322 606.35 399.322C607.747 399.322 608.896 398.779 609.796 397.692C610.728 396.605 611.333 395.41 611.613 394.106C611.923 392.801 612.079 391.451 612.079 390.053C612.079 388.997 612.001 388.004 611.846 387.072C611.691 386.141 611.411 385.209 611.007 384.277C610.635 383.346 610.06 382.6 609.284 382.042C608.508 381.483 607.561 381.203 606.443 381.203C604.766 381.203 603.384 382.026 602.297 383.672C601.21 385.287 600.667 386.979 600.667 388.749ZM630.205 379.48C632.907 379.48 634.987 380.334 636.447 382.042C637.937 383.718 638.682 385.908 638.682 388.609H625.314C625.283 388.764 625.268 389.028 625.268 389.401V390.239C625.299 392.786 625.795 394.913 626.758 396.621C627.752 398.329 629.413 399.183 631.742 399.183C634.444 399.183 636.384 397.816 637.564 395.084L638.589 395.829C637.006 399.276 634.335 400.999 630.578 400.999C627.441 400.999 624.988 400.006 623.218 398.018C621.448 396 620.563 393.438 620.563 390.333C620.563 387.32 621.433 384.759 623.172 382.647C624.942 380.535 627.286 379.48 630.205 379.48ZM625.454 387.352H634.024C633.9 385.488 633.559 384.044 633 383.02C632.254 381.467 631.199 380.691 629.832 380.691C627.503 380.691 626.044 382.911 625.454 387.352ZM649.673 379.247V384.417C650.915 381.125 653.089 379.48 656.194 379.48C657.405 379.48 658.415 379.837 659.222 380.551C660.029 381.265 660.433 382.228 660.433 383.439C660.433 384.153 660.185 384.774 659.688 385.302C659.222 385.799 658.632 386.047 657.918 386.047C657.266 386.047 656.722 385.845 656.287 385.442C655.853 385.007 655.635 384.464 655.635 383.812C655.635 382.632 656.256 381.747 657.499 381.157C657.095 380.908 656.598 380.784 656.008 380.784C654.052 380.784 652.499 381.747 651.35 383.672C650.232 385.566 649.673 387.584 649.673 389.727V399.369H653.632V400.627H641.755V399.369H645.248V381.157H641.755V379.899H645.248L649.673 379.247ZM674.838 367.649C676.733 367.649 678.239 368.099 679.357 368.999C680.785 370.086 681.499 371.344 681.499 372.772C681.499 373.486 681.282 374.092 680.847 374.589C680.443 375.055 679.884 375.288 679.17 375.288C678.487 375.288 677.928 375.07 677.493 374.635C677.09 374.201 676.888 373.642 676.888 372.959C676.888 372.4 677.09 371.903 677.493 371.468C677.897 371.033 678.378 370.754 678.937 370.63C678.378 369.978 677.835 369.527 677.307 369.279C676.655 369.03 675.925 368.906 675.118 368.906C673.627 368.906 672.525 369.481 671.811 370.63C671.097 371.748 670.739 373.114 670.739 374.729V379.899H674.932V381.157H670.739V399.369H674.233V400.627H662.821V399.369H666.314V381.157H662.821V379.899H666.314V376.173C666.314 373.533 667.091 371.453 668.643 369.931C670.196 368.409 672.261 367.649 674.838 367.649ZM682.344 394.385V381.157H678.851V379.899H686.769V393.686C686.769 397.04 688.058 398.717 690.635 398.717C692.312 398.717 693.601 397.863 694.501 396.155C695.402 394.416 695.852 392.599 695.852 390.705V381.157H692.359V379.899H700.277V399.369H703.771V400.627H695.852V395.596C695.324 397.242 694.424 398.562 693.151 399.555C691.877 400.518 690.387 400.999 688.679 400.999C686.598 400.999 685.015 400.425 683.928 399.276C682.872 398.096 682.344 396.466 682.344 394.385ZM741.27 387.212V399.369H744.764V400.627H733.492V399.369H736.752V387.445C736.752 386.358 736.675 385.442 736.519 384.697C736.395 383.951 736.038 383.268 735.448 382.647C734.858 382.026 734.035 381.715 732.979 381.715C732.141 381.715 731.411 381.902 730.79 382.274C728.896 383.579 727.949 385.706 727.949 388.656V399.369H731.209V400.627H720.263V399.369H723.524V387.119C723.524 386.063 723.446 385.178 723.291 384.464C723.136 383.749 722.763 383.113 722.173 382.554C721.614 381.995 720.822 381.715 719.797 381.715C718.183 381.715 716.925 382.445 716.025 383.905C715.155 385.333 714.72 386.917 714.72 388.656V399.369H717.981V400.627H706.802V399.369H710.295V381.157H706.802V379.899H710.342L714.72 379.247V384.324C715.993 381.094 718.322 379.48 721.707 379.48C725.123 379.48 727.173 381.079 727.856 384.277C729.284 381.079 731.613 379.48 734.843 379.48C739.128 379.48 741.27 382.057 741.27 387.212ZM756.979 379.48C759.68 379.48 761.761 380.334 763.22 382.042C764.711 383.718 765.456 385.908 765.456 388.609H752.088C752.057 388.764 752.041 389.028 752.041 389.401V390.239C752.072 392.786 752.569 394.913 753.532 396.621C754.525 398.329 756.187 399.183 758.516 399.183C761.217 399.183 763.158 397.816 764.338 395.084L765.363 395.829C763.779 399.276 761.109 400.999 757.351 400.999C754.215 400.999 751.762 400.006 749.992 398.018C748.222 396 747.337 393.438 747.337 390.333C747.337 387.32 748.206 384.759 749.945 382.647C751.715 380.535 754.06 379.48 756.979 379.48ZM752.228 387.352H760.798C760.674 385.488 760.332 384.044 759.773 383.02C759.028 381.467 757.972 380.691 756.606 380.691C754.277 380.691 752.818 382.911 752.228 387.352ZM813.732 387.212V399.369H817.225V400.627H805.953V399.369H809.214V387.445C809.214 386.358 809.136 385.442 808.981 384.697C808.857 383.951 808.5 383.268 807.91 382.647C807.32 382.026 806.497 381.715 805.441 381.715C804.603 381.715 803.873 381.902 803.252 382.274C801.357 383.579 800.41 385.706 800.41 388.656V399.369H803.671V400.627H792.725V399.369H795.985V387.119C795.985 386.063 795.908 385.178 795.753 384.464C795.597 383.749 795.225 383.113 794.635 382.554C794.076 381.995 793.284 381.715 792.259 381.715C790.644 381.715 789.387 382.445 788.486 383.905C787.617 385.333 787.182 386.917 787.182 388.656V399.369H790.442V400.627H779.263V399.369H782.757V381.157H779.263V379.899H782.803L787.182 379.247V384.324C788.455 381.094 790.784 379.48 794.169 379.48C797.585 379.48 799.634 381.079 800.317 384.277C801.746 381.079 804.075 379.48 807.304 379.48C811.589 379.48 813.732 382.057 813.732 387.212ZM829.44 379.48C832.142 379.48 834.222 380.334 835.682 382.042C837.172 383.718 837.918 385.908 837.918 388.609H824.549C824.518 388.764 824.503 389.028 824.503 389.401V390.239C824.534 392.786 825.031 394.913 825.993 396.621C826.987 398.329 828.648 399.183 830.977 399.183C833.679 399.183 835.62 397.816 836.8 395.084L837.824 395.829C836.241 399.276 833.57 400.999 829.813 400.999C826.676 400.999 824.223 400.006 822.453 398.018C820.683 396 819.798 393.438 819.798 390.333C819.798 387.32 820.668 384.759 822.407 382.647C824.177 380.535 826.521 379.48 829.44 379.48ZM824.689 387.352H833.26C833.135 385.488 832.794 384.044 832.235 383.02C831.49 381.467 830.434 380.691 829.068 380.691C826.739 380.691 825.279 382.911 824.689 387.352ZM857.479 401.139V396.667C856.734 398.003 855.756 399.058 854.545 399.835C853.365 400.611 852.045 400.999 850.585 400.999C847.666 400.999 845.368 399.975 843.692 397.925C842.046 395.844 841.223 393.329 841.223 390.379C841.223 387.46 842.092 384.914 843.831 382.74C845.601 380.535 847.899 379.433 850.725 379.433C853.923 379.433 856.175 380.815 857.479 383.579V369.232H853.986V367.975H857.479L861.904 367.323V399.276H865.397V400.533H861.904L857.479 401.139ZM851.936 399.043C853.085 399.043 854.11 398.639 855.01 397.832C855.942 397.025 856.641 396.046 857.106 394.897C857.355 394.152 857.479 393.531 857.479 393.034V388.237C857.479 387.429 857.355 386.606 857.106 385.768C856.547 384.153 855.585 382.911 854.218 382.042C853.504 381.669 852.743 381.483 851.936 381.483C850.849 381.483 849.887 381.762 849.048 382.321C848.241 382.88 847.62 383.625 847.185 384.557C846.75 385.457 846.424 386.404 846.207 387.398C845.99 388.392 845.881 389.385 845.881 390.379C845.881 391.777 846.067 393.096 846.44 394.338C846.812 395.581 847.464 396.683 848.396 397.646C849.359 398.577 850.539 399.043 851.936 399.043ZM875.463 374.309C874.935 374.868 874.299 375.148 873.554 375.148C872.808 375.148 872.156 374.884 871.597 374.356C871.038 373.797 870.759 373.129 870.759 372.353C870.759 371.577 871.023 370.94 871.551 370.443C872.11 369.946 872.777 369.698 873.554 369.698C874.33 369.698 874.966 369.946 875.463 370.443C875.991 370.94 876.255 371.577 876.255 372.353C876.255 373.098 875.991 373.75 875.463 374.309ZM875.883 379.247V399.369H879.376V400.627H867.964V399.369H871.457V381.157H867.964V379.899H871.457L875.883 379.247ZM889.94 389.308C891.679 389.308 893.17 389.541 894.412 390.007V384.417C894.412 383.144 894.117 382.212 893.527 381.622C892.968 381.001 892.052 380.691 890.779 380.691C889.257 380.691 887.984 381.094 886.959 381.902C887.363 382.026 887.767 382.29 888.17 382.694C888.512 383.128 888.683 383.687 888.683 384.37C888.683 385.054 888.465 385.613 888.031 386.047C887.596 386.482 887.037 386.699 886.354 386.699C885.671 386.699 885.127 386.467 884.723 386.001C884.289 385.566 884.071 384.992 884.071 384.277C884.071 382.787 884.894 381.622 886.54 380.784C888.217 379.914 889.894 379.48 891.571 379.48C896.415 379.48 898.837 381.281 898.837 384.883V397.087C898.837 398.422 899.334 399.09 900.327 399.09C900.793 399.09 901.228 398.919 901.632 398.577C901.942 398.267 902.222 397.941 902.47 397.599L903.215 398.344C902.004 400.114 900.529 400.999 898.79 400.999C897.89 400.999 897.082 400.813 896.368 400.44C895.654 400.099 895.08 399.462 894.645 398.531C892.72 400.207 890.608 401.046 888.31 401.046C886.54 401.046 885.065 400.533 883.885 399.509C882.736 398.453 882.162 397.056 882.162 395.317C882.162 393.236 882.907 391.714 884.397 390.752C885.919 389.789 887.767 389.308 889.94 389.308ZM886.82 394.758C886.82 396.062 887.146 397.087 887.798 397.832C888.481 398.577 889.459 398.95 890.732 398.95C891.477 398.95 892.145 398.81 892.735 398.531C893.325 398.313 893.884 397.956 894.412 397.459V391.171C893.822 390.954 893.232 390.767 892.642 390.612C892.083 390.519 891.462 390.472 890.779 390.472C889.475 390.472 888.481 390.861 887.798 391.637C887.146 392.382 886.82 393.422 886.82 394.758ZM929.843 379.806V386.886H928.585C928.461 385.116 927.917 383.656 926.955 382.507C926.023 381.327 924.703 380.737 922.996 380.737C921.94 380.737 921.086 381.048 920.434 381.669C919.813 382.259 919.502 383.066 919.502 384.091C919.502 384.867 919.642 385.488 919.921 385.954C920.232 386.389 920.729 386.793 921.412 387.165C922.468 387.724 923.881 388.283 925.651 388.842C927.731 389.432 929.206 390.115 930.076 390.892C930.976 391.792 931.426 393.05 931.426 394.664C931.426 396.59 930.759 398.127 929.423 399.276C928.119 400.425 926.52 400.999 924.626 400.999C921.862 400.999 919.875 400.021 918.664 398.065L918.198 400.86H916.94V393.593H918.198C919.161 397.692 921.241 399.742 924.44 399.742C925.464 399.742 926.318 399.447 927.001 398.857C927.84 398.236 928.259 397.304 928.259 396.062C928.259 394.664 927.467 393.717 925.883 393.221C925.666 393.158 925.356 393.065 924.952 392.941C924.548 392.786 924.16 392.646 923.787 392.522C923.446 392.398 923.12 392.289 922.809 392.196C918.555 390.954 916.428 388.827 916.428 385.814C916.428 383.827 917.018 382.274 918.198 381.157C919.378 380.039 920.977 379.48 922.996 379.48C925.387 379.48 927.126 380.272 928.212 381.855L928.492 379.806H929.843ZM944.342 379.48C947.043 379.48 949.124 380.334 950.583 382.042C952.074 383.718 952.819 385.908 952.819 388.609H939.451C939.42 388.764 939.404 389.028 939.404 389.401V390.239C939.435 392.786 939.932 394.913 940.895 396.621C941.888 398.329 943.55 399.183 945.879 399.183C948.58 399.183 950.521 397.816 951.701 395.084L952.726 395.829C951.142 399.276 948.472 400.999 944.714 400.999C941.578 400.999 939.125 400.006 937.355 398.018C935.585 396 934.7 393.438 934.7 390.333C934.7 387.32 935.569 384.759 937.308 382.647C939.078 380.535 941.423 379.48 944.342 379.48ZM939.59 387.352H948.161C948.037 385.488 947.695 384.044 947.136 383.02C946.391 381.467 945.335 380.691 943.969 380.691C941.64 380.691 940.18 382.911 939.59 387.352ZM963.81 379.247V384.417C965.052 381.125 967.226 379.48 970.331 379.48C971.542 379.48 972.551 379.837 973.359 380.551C974.166 381.265 974.57 382.228 974.57 383.439C974.57 384.153 974.321 384.774 973.824 385.302C973.359 385.799 972.769 386.047 972.054 386.047C971.402 386.047 970.859 385.845 970.424 385.442C969.989 385.007 969.772 384.464 969.772 383.812C969.772 382.632 970.393 381.747 971.635 381.157C971.231 380.908 970.735 380.784 970.145 380.784C968.188 380.784 966.636 381.747 965.487 383.672C964.369 385.566 963.81 387.584 963.81 389.727V399.369H967.769V400.627H955.891V399.369H959.385V381.157H955.891V379.899H959.385L963.81 379.247ZM987.438 400.999L978.122 381.157H974.629V379.899H986.367V381.157H982.873L989.441 395.456L995.589 381.157H991.909V379.899H1000.81V381.157H997.313L988.695 400.999H987.438ZM1009.47 374.309C1008.94 374.868 1008.3 375.148 1007.56 375.148C1006.81 375.148 1006.16 374.884 1005.6 374.356C1005.04 373.797 1004.76 373.129 1004.76 372.353C1004.76 371.577 1005.03 370.94 1005.56 370.443C1006.12 369.946 1006.78 369.698 1007.56 369.698C1008.34 369.698 1008.97 369.946 1009.47 370.443C1010 370.94 1010.26 371.577 1010.26 372.353C1010.26 373.098 1010 373.75 1009.47 374.309ZM1009.89 399.369H1013.38V400.627H1001.97V399.369H1005.46V381.157H1001.97V379.899H1005.46L1009.89 379.247V399.369ZM1030.19 379.806V386.886H1028.93C1028.81 385.116 1028.26 383.656 1027.3 382.507C1026.37 381.327 1025.05 380.737 1023.34 380.737C1022.29 380.737 1021.43 381.048 1020.78 381.669C1020.16 382.259 1019.85 383.066 1019.85 384.091C1019.85 384.867 1019.99 385.488 1020.27 385.954C1020.58 386.389 1021.07 386.793 1021.76 387.165C1022.81 387.724 1024.23 388.283 1026 388.842C1028.08 389.432 1029.55 390.115 1030.42 390.892C1031.32 391.792 1031.77 393.05 1031.77 394.664C1031.77 396.59 1031.1 398.127 1029.77 399.276C1028.46 400.425 1026.87 400.999 1024.97 400.999C1022.21 400.999 1020.22 400.021 1019.01 398.065L1018.54 400.86H1017.29V393.593H1018.54C1019.51 397.692 1021.59 399.742 1024.78 399.742C1025.81 399.742 1026.66 399.447 1027.35 398.857C1028.19 398.236 1028.6 397.304 1028.6 396.062C1028.6 394.664 1027.81 393.717 1026.23 393.221L1026.13 393.192C1026.09 393.18 1026.05 393.168 1026.01 393.155C1025.81 393.099 1025.58 393.028 1025.3 392.941C1024.89 392.786 1024.51 392.646 1024.13 392.522C1023.79 392.398 1023.47 392.289 1023.15 392.196C1018.9 390.954 1016.77 388.827 1016.77 385.814C1016.77 383.827 1017.36 382.274 1018.54 381.157C1019.72 380.039 1021.32 379.48 1023.34 379.48C1025.73 379.48 1027.47 380.272 1028.56 381.855L1028.84 379.806H1030.19ZM1044.69 379.48C1047.39 379.48 1049.47 380.334 1050.93 382.042C1052.42 383.718 1053.16 385.908 1053.16 388.609H1039.8C1039.77 388.764 1039.75 389.028 1039.75 389.401V390.239C1039.78 392.786 1040.28 394.913 1041.24 396.621C1042.23 398.329 1043.9 399.183 1046.22 399.183C1048.93 399.183 1050.87 397.816 1052.05 395.084L1053.07 395.829C1051.49 399.276 1048.82 400.999 1045.06 400.999C1041.92 400.999 1039.47 400.006 1037.7 398.018C1035.93 396 1035.05 393.438 1035.05 390.333C1035.05 387.32 1035.91 384.759 1037.65 382.647C1039.42 380.535 1041.77 379.48 1044.69 379.48ZM1039.94 387.352H1048.51C1048.38 385.488 1048.04 384.044 1047.48 383.02C1046.74 381.467 1045.68 380.691 1044.31 380.691C1041.99 380.691 1040.53 382.911 1039.94 387.352ZM1383.73 105.967H264.273V102.293H1383.73V105.967ZM398.013 249.114C395.644 242.153 390.978 236.526 384.018 232.231C379.871 229.713 373.503 226.233 364.913 221.79C360.322 219.864 354.768 217.124 348.252 213.57C346.474 212.681 343.068 210.904 338.033 208.238C331.961 204.98 327.073 201.056 323.371 196.465C319.668 192.318 317.817 186.838 317.817 180.025C317.817 172.176 320.335 166.03 325.37 161.587C330.554 157.144 337.218 154.923 345.364 154.923C357.508 154.923 366.69 159.662 372.91 169.14C379.13 178.619 382.24 189.8 382.24 202.685H388.239V147.369H382.463L379.575 167.141C372.318 155.145 360.544 149.147 344.253 149.147C331.812 149.147 321.445 152.997 313.152 160.698C305.006 168.252 300.934 178.322 300.934 190.911C300.934 196.539 301.822 201.574 303.599 206.017C305.525 210.46 308.413 214.311 312.263 217.569C316.114 220.827 319.816 223.567 323.371 225.788C327.073 227.862 331.812 230.231 337.588 232.897C340.995 234.378 344.105 235.933 346.919 237.562C347.955 238.155 350.917 239.562 355.805 241.783C359.655 243.56 362.543 244.967 364.468 246.004C371.133 249.41 375.946 253.039 378.908 256.889C382.018 260.74 383.573 266.072 383.573 272.884C383.573 279.4 381.87 285.176 378.464 290.212C375.058 295.099 370.318 298.431 364.246 300.209C360.544 301.541 356.619 302.208 352.472 302.208C338.995 302.208 328.628 297.617 321.371 288.435C314.263 279.104 310.19 267.404 309.153 253.335H302.933V308.428H309.82L311.375 287.768C320.409 301.541 334.256 308.428 352.917 308.428C365.801 308.428 376.835 304.059 386.017 295.321C395.199 286.583 399.79 275.772 399.79 262.887C399.79 257.704 399.198 253.113 398.013 249.114ZM539.061 148.702H533.063L530.175 168.474C520.4 155.737 506.997 149.369 489.966 149.369C475.748 149.369 463.382 153.293 452.867 161.143C442.352 168.844 434.576 178.767 429.541 190.911C424.506 202.907 421.988 215.94 421.988 230.009C421.988 243.782 424.432 256.519 429.319 268.219C434.206 279.771 441.833 289.397 452.2 297.098C462.567 304.652 474.86 308.428 489.077 308.428C506.257 308.428 519.586 301.615 529.064 287.99L532.619 309.095H538.394V259.999H532.396C531.063 271.995 526.843 282.066 519.734 290.212C512.773 298.209 503.443 302.208 491.743 302.208C485.227 302.208 479.229 300.579 473.749 297.321C463.678 291.693 456.495 282.585 452.2 269.996C447.905 257.408 445.758 244.079 445.758 230.009C445.758 223.641 446.128 217.347 446.869 211.126C447.609 204.906 449.016 198.316 451.09 191.355C453.163 184.394 455.829 178.396 459.087 173.361C462.345 168.177 466.714 163.883 472.194 160.476C477.673 157.07 483.968 155.367 491.077 155.367C495.816 155.367 500.777 156.181 505.961 157.811C522.103 164.031 531.138 178.396 533.063 200.908H539.061V148.702ZM561.213 306.651H676.287V258.889H670.289L662.736 300.653H604.533V229.565H637.189L642.076 255.334H647.852V197.575H641.854L637.189 223.567H604.533V156.922H656.96L664.513 196.465H670.511V150.924H561.213V156.922H582.318V300.653H561.213V306.651ZM699.845 306.651H748.274V300.653L727.392 298.431V167.141L815.585 308.428H822.028V159.143L843.132 156.922V150.924H794.481V156.922L815.585 159.143V268.885L742.942 150.924H699.845V156.922H720.949V298.431L699.845 300.653V306.651ZM859.082 196.242H865.08L872.411 157.811H910.842V300.653H889.738V306.651H954.162V300.653H933.057V157.811H971.489L979.042 196.242H985.04V150.924H859.082V196.242ZM1046.23 156.922H1067.33V150.924H1002.91V156.922H1024.01V300.653H1002.91V306.651H1067.33V300.653H1046.23V156.922ZM1086.22 306.651H1152.86V300.653H1129.54V231.786H1164.19L1169.3 257.556H1175.08V199.797H1169.08L1164.19 225.788H1129.54V156.922H1181.96L1189.52 196.465H1195.51V150.924H1086.22V156.922H1107.32V300.653H1086.22V306.651ZM1311.7 150.924V156.922L1332.81 159.143L1297.71 226.233L1257.94 156.922H1278.6V150.924H1211.07V156.922H1232.18L1278.16 234.896V300.653H1257.06V306.651H1321.48V300.653H1300.38V235.119L1340.36 159.143L1360.8 156.922V150.924H1311.7ZM264.273 349.65H1383.73V345.976H264.273V349.65Z" fill="#251F1D"/>
</svg>
