<svg width="304" height="47" viewBox="0 0 304 47" fill="none" xmlns="http://www.w3.org/2000/svg">
<path d="M24.6027 24.7156C26.5934 25.944 27.9277 27.5535 28.6054 29.5443C28.9443 30.6879 29.1137 32.001 29.1137 33.4835C29.1137 37.1686 27.8006 40.2606 25.1745 42.7597C22.5484 45.2588 19.3928 46.5083 15.7077 46.5083C10.3707 46.5083 6.41034 44.5387 3.82656 40.5995L3.38181 46.5083H1.41221V30.7515H3.1912C3.4877 34.7754 4.65252 38.1216 6.68566 40.7901C8.76115 43.4162 11.7261 44.7293 15.5806 44.7293C16.7666 44.7293 17.8891 44.5387 18.948 44.1575C20.6846 43.6492 22.0401 42.6962 23.0143 41.2984C23.9885 39.8582 24.4756 38.2063 24.4756 36.3426C24.4756 34.3942 24.0308 32.8693 23.1414 31.768C22.2942 30.6668 20.9176 29.629 19.0115 28.6548C18.4609 28.3583 17.6349 27.9559 16.5337 27.4476C15.1359 26.8123 14.2887 26.4099 13.9922 26.2405C13.1875 25.7745 12.298 25.3298 11.3237 24.9062C9.67182 24.1438 8.3164 23.4661 7.25748 22.8731C6.24091 22.2377 5.18198 21.4541 4.0807 20.5223C2.97942 19.5904 2.15346 18.4891 1.60282 17.2184C1.09453 15.9477 0.840389 14.5076 0.840389 12.898C0.840389 9.29766 2.00521 6.41738 4.33484 4.25718C6.70683 2.05461 9.67182 0.953328 13.2298 0.953328C17.8891 0.953328 21.2565 2.66879 23.332 6.0997L24.1579 0.445046H25.8098V16.2654H24.0944C24.0944 12.5803 23.2049 9.38237 21.4259 6.67152C19.6469 3.96068 17.0208 2.60525 13.5475 2.60525C11.2179 2.60525 9.31179 3.24061 7.82929 4.51132C6.38916 5.78203 5.66909 7.53984 5.66909 9.78476C5.66909 11.7332 6.19855 13.3004 7.25748 14.4864C8.3164 15.7995 9.71418 16.9219 11.4508 17.8538C12.891 18.6162 13.8652 19.1245 14.3735 19.3786C16.2372 20.3952 17.8255 21.1788 19.1386 21.7294C21.5953 23.0001 23.4167 23.9955 24.6027 24.7156ZM67.23 0.826258H68.9455V15.7571H67.23C66.6794 9.31884 64.0956 5.21021 59.4787 3.43121C57.9962 2.96529 56.5772 2.73232 55.2218 2.73232C53.1887 2.73232 51.3885 3.21943 49.8213 4.19364C48.2541 5.16785 47.0046 6.3962 46.0727 7.8787C45.1408 9.31884 44.3784 11.0343 43.7854 13.0251C43.1924 15.0159 42.79 16.9007 42.5782 18.6797C42.3665 20.4587 42.2606 22.2589 42.2606 24.0803C42.2606 28.1042 42.8747 31.9163 44.1031 35.5166C45.3315 39.117 47.3858 41.7219 50.266 43.3315C51.8333 44.2634 53.5487 44.7293 55.4124 44.7293C58.7586 44.7293 61.4271 43.5857 63.4179 41.2984C65.451 38.9687 66.6582 36.0885 67.0394 32.6575H68.7549V46.6989H67.103L66.0864 40.663C63.3755 44.5599 59.5634 46.5083 54.65 46.5083C50.5837 46.5083 47.0681 45.4282 44.1031 43.268C41.1381 41.0654 38.9567 38.3122 37.5589 35.0084C36.1612 31.6622 35.4623 28.0195 35.4623 24.0803C35.4623 20.0563 36.1823 16.3289 37.6225 12.898C39.0626 9.42473 41.2864 6.58681 44.2937 4.38425C47.3011 2.13933 50.8379 1.01687 54.9041 1.01687C59.7752 1.01687 63.6085 2.83822 66.4041 6.48092L67.23 0.826258ZM108.193 46H75.2812V44.2845H81.317V3.17707H75.2812V1.46161H106.541V14.4864H104.825L102.665 3.17707H87.6706V22.2377H97.0103L98.3445 14.8041H100.06V31.3233H98.4081L97.0103 23.9532H87.6706V44.2845H104.317L106.477 32.3399H108.193V46ZM128.781 46H114.93V44.2845L120.966 43.6492V3.17707H114.93V1.46161H127.256L148.032 35.199V3.81243L141.996 3.17707V1.46161H155.911V3.17707L149.875 3.81243V46.5083H148.032L122.809 6.0997V43.6492L128.781 44.2845V46ZM162.188 14.4229H160.472V1.46161H196.497V14.4229H194.782L192.621 3.43121H181.63V44.2845H187.666V46H169.24V44.2845H175.276V3.43121H164.284L162.188 14.4229ZM220.033 3.17707H213.997V44.2845H220.033V46H201.608V44.2845H207.643V3.17707H201.608V1.46161H220.033V3.17707ZM244.494 46H225.433V44.2845H231.469V3.17707H225.433V1.46161H256.693V14.4864H254.977L252.817 3.17707H237.823V22.8731H247.734L249.132 15.4394H250.848V31.9587H249.196L247.734 24.5885H237.823V44.2845H244.494V46ZM289.924 3.17707V1.46161H303.965V3.17707L298.12 3.81243L286.684 25.5416V44.2845H292.72V46H274.294V44.2845H280.33V25.478L267.178 3.17707H261.142V1.46161H280.457V3.17707H274.548L285.921 23.0001L295.96 3.81243L289.924 3.17707Z" fill="#ECEBE1"/>
</svg>
